<svg width="256" height="255" viewBox="0 0 256 255" fill="none" xmlns="http://www.w3.org/2000/svg">
<g clip-path="url(#clip0_2024_210)">
<mask id="mask0_2024_210" style="mask-type:alpha" maskUnits="userSpaceOnUse" x="1" y="1" width="254" height="255">
<path d="M79.5841 96.1556C97.4474 114.019 97.4474 142.981 79.5841 160.844L47.2396 193.189L14.8952 160.844C-2.96815 142.981 -2.96815 114.019 14.8952 96.1556C32.7585 78.2923 61.7207 78.2922 79.5841 96.1556Z" fill="url(#paint0_linear_2024_210)"/>
<path d="M176.526 160.844C158.663 142.981 158.663 114.019 176.526 96.1556L208.87 63.8112L241.215 96.1556C259.078 114.019 259.078 142.981 241.215 160.844C223.352 178.708 194.389 178.708 176.526 160.844Z" fill="url(#paint1_linear_2024_210)"/>
<path d="M95.7175 241.655C113.581 259.519 142.543 259.519 160.406 241.655L192.751 209.311L160.406 176.967C142.543 159.103 113.581 159.103 95.7175 176.967C77.8541 194.83 77.8541 223.792 95.7175 241.655Z" fill="url(#paint2_linear_2024_210)"/>
<path d="M160.406 15.3445C142.543 -2.51881 113.581 -2.51878 95.7175 15.3445L63.373 47.689L95.7175 80.0334C113.581 97.8967 142.543 97.8967 160.406 80.0334C178.27 62.1701 178.27 33.2079 160.406 15.3445Z" fill="url(#paint3_linear_2024_210)"/>
</mask>
<g mask="url(#mask0_2024_210)">
<rect x="-125.537" y="-44.2678" width="419.668" height="331.107" fill="url(#paint4_linear_2024_210)"/>
</g>
</g>
<defs>
<linearGradient id="paint0_linear_2024_210" x1="14.8952" y1="96.1556" x2="79.5841" y2="160.844" gradientUnits="userSpaceOnUse">
<stop stop-color="#CF1751"/>
<stop offset="1" stop-color="#FF558B"/>
</linearGradient>
<linearGradient id="paint1_linear_2024_210" x1="176.526" y1="96.1556" x2="241.215" y2="160.844" gradientUnits="userSpaceOnUse">
<stop stop-color="#CF1751"/>
<stop offset="1" stop-color="#FF558B"/>
</linearGradient>
<linearGradient id="paint2_linear_2024_210" x1="95.7175" y1="176.967" x2="160.406" y2="241.655" gradientUnits="userSpaceOnUse">
<stop stop-color="#CF1751"/>
<stop offset="1" stop-color="#FF558B"/>
</linearGradient>
<linearGradient id="paint3_linear_2024_210" x1="95.7175" y1="15.3445" x2="160.406" y2="80.0334" gradientUnits="userSpaceOnUse">
<stop stop-color="#CF1751"/>
<stop offset="1" stop-color="#FF558B"/>
</linearGradient>
<linearGradient id="paint4_linear_2024_210" x1="-125.537" y1="-20.7313" x2="258.228" y2="312.769" gradientUnits="userSpaceOnUse">
<stop stop-color="#CF1751"/>
<stop offset="1" stop-color="#FF4B84" stop-opacity="0.87"/>
</linearGradient>
<clipPath id="clip0_2024_210">
<rect width="256" height="255" fill="white"/>
</clipPath>
</defs>
</svg>
